{"title":"Hostages S01E01 - 720p x264 [MKV,AC3,5.1] Ehhhh","uid":8972868,"size":452071384,"categoryP":"video","categoryS":"hd___tv_shows","magnet":"?xt=urn:btih:5005e83bef863e0881e72ebc3a79184bd141e978&amp;dn=Hostages+S01E01+-+720p+x264+%5BMKV%2CAC3%2C5.1%5D+Ehhhh&amp;tr=udp%3A%2F%2Ftracker.openbittorrent.com%3A80&amp;tr=udp%3A%2F%2Fopen.demonii.com%3A1337&amp;tr=udp%3A%2F%2Ftracker.coppersurfer.tk%3A6969&amp;tr=udp%3A%2F%2Fexodus.desync.com%3A6969","seeders":0,"leechers":0,"uploader":"Ehhhhtozebec","files":-1,"time":1380369053,"description":"image\n\nimage\n\nIMDb Info\nTVRage Info\nWikipedia Info\n\nHostages is a high-octane suspense drama about a premiere surgeon thrust into a chilling political conspiracy when her family is taken hostage by rogue FBI Agent Duncan Carlisle. Dr. Ellen Sanders and her family are held captive in their home by Carlisle, a desperate man doing the wrong thing for the right reasons, who orders her to assassinate the President when she operates on him. His highly skilled accomplices include his brother-in-law Kramer, whose loyalty to Carlisle will be tested; quick-tempered and intimidating Archer, an ex-military man with a razor-sharp tongue; and the only woman involved, Sandrine, a mysterious last-minute replacement to the team. With her family's life in peril, Ellen faces an incomprehensible moral dilemma in order to save her overbearing husband Brian, her secretive daughter Morgan and her not-so-innocent son Jake. In this high-stakes standoff between Ellen and Carlisle, fraught with tremendous national and personal consequences, the choices between right and wrong become even more blurred.\n\nCast\n\nToni Collette as Dr. Ellen Sanders\nDylan McDermott as FBI Special Agent Duncan Carlisle\nTate Donovan as Brian Sanders\nQuinn Shephard as Morgan Sanders\nMateus Ward as Jake Sanders\nBilly Brown as Archer Petit\nSandrine Holt as Maria Gonzales\nRhys Coiro as Kramer Delaney\nJames Naughton as President Paul Kincaid\n\n\n\n1x01 -- Pilot (Sep/23/2013)\n\nAfter Dr. Ellen Sanders, a prominent Washington D.C. surgeon, is handpicked to operate on the President of the United States, rogue FBI agent Duncan Carlisle and armed intruders suddenly take her and her family hostage. Scared and bewildered, Ellen soon learns the reason: unless she assassinates the President during surgery, her captors will kill them all.\n\nimage\nGeneral\nFormat : Matroska\nFormat version : Version 4 / Version 2\nFile size : 430 MiB\nDuration : 43mn 1s\nOverall bit rate : 1 398 Kbps\nEncoded date : UTC 2013-09-24 21:20:51\nWriting application : mkvmerge v6.2.0 ('Promised Land') built on Apr 28 2013 12:22:01\nWriting library : libebml v1.3.0 + libmatroska v1.4.0\n\nVideo\nID : 1\nFormat : AVC\nFormat/Info : Advanced Video Codec\nFormat profile : &lt;a class=&quot;__cf_email__&quot; href=&quot;/cdn-cgi/l/email-protection&quot; data-cfemail=&quot;2f674648476f631b011e&quot;&gt;[email&amp;#160;protected]&lt;/a&gt;&lt;script cf-hash='f9e31' type=&quot;text/javascript&quot;&gt;\n/* &lt;![CDATA[ */!function(){try{var t=&quot;currentScript&quot;in document?document.currentScript:function(){for(var t=document.getElementsByTagName(&quot;script&quot;),e=t.length;e--;)if(t[e].getAttribute(&quot;cf-hash&quot;))return t[e]}();if(t&amp;&amp;t.previousSibling){var e,r,n,i,c=t.previousSibling,a=c.getAttribute(&quot;data-cfemail&quot;);if(a){for(e=&quot;&quot;,r=parseInt(a.substr(0,2),16),n=2;a.length-n;n+=2)i=parseInt(a.substr(n,2),16)^r,e+=String.fromCharCode(i);e=document.createTextNode(e),c.parentNode.replaceChild(e,c)}}}catch(u){}}();/* ]]&gt; */&lt;/script&gt;\nFormat settings, CABAC : Yes\nFormat settings, ReFrames : 14 frames\nCodec ID : V_MPEG4/ISO/AVC\nDuration : 43mn 1s\nBit rate : 1 010 Kbps\nWidth : 1 280 pixels\nHeight : 720 pixels\nDisplay aspect ratio : 16:9\nFrame rate mode : Constant\nFrame rate : 23.976 fps\nColor space : YUV\nChroma subsampling : 4:2:0\nBit depth : 8 bits\nScan type : Progressive\nBits/(Pixel*Frame) : 0.046\nStream size : 304 MiB (71%)\nWriting library : x264 core 138 r2359+704+48 3f879a0 tMod [8-bit@all X86]\nDefault : Yes\nForced : No\n\nAudio\nID : 2\nFormat : AC-3\nFormat/Info : Audio Coding 3\nMode extension : CM (complete main)\nFormat settings, Endianness : Big\nCodec ID : A_AC3\nDuration : 43mn 1s\nBit rate mode : Constant\nBit rate : 384 Kbps\nChannel(s) : 6 channels\nChannel positions : Front: L C R, Side: L R, LFE\nSampling rate : 48.0 KHz\nBit depth : 16 bits\nCompression mode : Lossy\nStream size : 118 MiB (27%)\nDefault : Yes\nForced : No\n\n","torrent":{"xt":"urn:btih:5005e83bef863e0881e72ebc3a79184bd141e978","amp;dn":"Hostages+S01E01+-+720p+x264+%5BMKV%2CAC3%2C5.1%5D+Ehhhh","amp;tr":["udp%3A%2F%2Ftracker.openbittorrent.com%3A80","udp%3A%2F%2Fopen.demonii.com%3A1337","udp%3A%2F%2Ftracker.coppersurfer.tk%3A6969","udp%3A%2F%2Fexodus.desync.com%3A6969"],"infoHash":"5005e83bef863e0881e72ebc3a79184bd141e978","infoHashBuffer":{"type":"Buffer","data":[80,5,232,59,239,134,62,8,129,231,46,188,58,121,24,75,209,65,233,120]},"announce":[],"urlList":[]}}